<svg xmlns="http://www.w3.org/2000/svg" xmlns:xlink="http://www.w3.org/1999/xlink" width="15.29" height="16.819" viewBox="0 0 15.29 16.819">
  <defs>
    <clipPath id="clip-path">
      <path id="Combined_Shape" data-name="Combined Shape" d="M2.293,16.819A2.293,2.293,0,0,1,0,14.526V2.293A2.294,2.294,0,0,1,2.293,0H6.116a.764.764,0,1,1,0,1.529H2.293a.764.764,0,0,0-.764.764V14.526a.764.764,0,0,0,.764.764H6.116a.764.764,0,1,1,0,1.529Zm8.634-4.81a.765.765,0,0,1,0-1.082L12.68,9.174H5.351a.765.765,0,0,1,0-1.53h7.327L10.927,5.892a.764.764,0,1,1,1.082-1.08l3.057,3.057h0l.006.007a.762.762,0,0,1,.133.185v0l.006.013,0,.006,0,.009,0,.01,0,.005.006.014h0a.765.765,0,0,1-.185.845l-3.041,3.042a.765.765,0,0,1-1.082,0Z" fill="#565656"/>
    </clipPath>
  </defs>
  <g id="ic_logout" transform="translate(-0.167 -0.583)">
    <path id="Combined_Shape-2" data-name="Combined Shape" d="M2.293,16.819A2.293,2.293,0,0,1,0,14.526V2.293A2.294,2.294,0,0,1,2.293,0H6.116a.764.764,0,1,1,0,1.529H2.293a.764.764,0,0,0-.764.764V14.526a.764.764,0,0,0,.764.764H6.116a.764.764,0,1,1,0,1.529Zm8.634-4.81a.765.765,0,0,1,0-1.082L12.68,9.174H5.351a.765.765,0,0,1,0-1.53h7.327L10.927,5.892a.764.764,0,1,1,1.082-1.08l3.057,3.057h0l.006.007a.762.762,0,0,1,.133.185v0l.006.013,0,.006,0,.009,0,.01,0,.005.006.014h0a.765.765,0,0,1-.185.845l-3.041,3.042a.765.765,0,0,1-1.082,0Z" transform="translate(0.167 0.583)" fill="#565656"/>
  </g>
</svg>
